<svg width="15.750000" height="15.750000" viewBox="0 0 15.75 15.75" fill="none" xmlns="http://www.w3.org/2000/svg" xmlns:xlink="http://www.w3.org/1999/xlink">
	<desc>
			Created with Pixso.
	</desc>
	<defs>
		<linearGradient x1="2.147625" y1="2.147627" x2="13.602374" y2="13.602375" id="paint_linear_26_1289_0" gradientUnits="userSpaceOnUse">
			<stop stop-color="#000000" stop-opacity="0.949020"/>
			<stop offset="1.000000" stop-color="#000000" stop-opacity="0.650980"/>
		</linearGradient>
	</defs>
	<path id="Vector" d="M7.87 0C5.78 0 3.78 0.82 2.3 2.3C0.82 3.78 0 5.78 0 7.87C0 9.96 0.82 11.96 2.3 13.44C3.78 14.92 5.78 15.75 7.87 15.75C9.96 15.75 11.96 14.92 13.44 13.44C14.92 11.96 15.75 9.96 15.75 7.87C15.75 5.78 14.92 3.78 13.44 2.3C11.96 0.82 9.96 0 7.87 0ZM9 9.38L9 9.38L9 10.12L6.75 10.12L6.75 9.56C6.75 8.07 7.32 7.79 7.96 7.48L8.12 7.41C8.4 7.28 8.69 7.15 8.94 6.86C9.87 5.94 9.16 4.5 7.98 4.5C7.79 4.49 7.6 4.51 7.41 4.58C7.23 4.64 7.06 4.74 6.92 4.87C6.78 5 6.66 5.16 6.59 5.34C6.51 5.51 6.47 5.7 6.47 5.9L4.21 5.89C4.22 5.22 4.41 4.56 4.76 3.99C5.11 3.41 5.62 2.95 6.22 2.64C6.82 2.34 7.49 2.2 8.16 2.26C10.03 2.41 11.57 4.01 11.58 5.9C11.59 7.44 10.42 8.92 9 9.38ZM6.75 13.5L8.21 13.5C8.42 13.5 8.62 13.41 8.76 13.26C8.91 13.12 9 12.92 9 12.71L9 11.25L7.53 11.25C7.32 11.25 7.12 11.33 6.98 11.48C6.83 11.62 6.75 11.82 6.75 12.03L6.75 13.5Z" fill="url(#paint_linear_26_1289_0)" fill-opacity="1.000000" fill-rule="evenodd"/>
	<path id="Vector" d="M7.87 0C5.78 0 3.78 0.82 2.3 2.3C0.82 3.78 0 5.78 0 7.87C0 9.96 0.82 11.96 2.3 13.44C3.78 14.92 5.78 15.75 7.87 15.75C9.96 15.75 11.96 14.92 13.44 13.44C14.92 11.96 15.75 9.96 15.75 7.87C15.75 5.78 14.92 3.78 13.44 2.3C11.96 0.82 9.96 0 7.87 0ZM9 9.38L9 9.38L9 10.12L6.75 10.12L6.75 9.56C6.75 8.07 7.32 7.79 7.96 7.48L8.12 7.41C8.4 7.28 8.69 7.15 8.94 6.86C9.87 5.94 9.16 4.5 7.98 4.5C7.79 4.49 7.6 4.51 7.41 4.58C7.23 4.64 7.06 4.74 6.92 4.87C6.78 5 6.66 5.16 6.59 5.34C6.51 5.51 6.47 5.7 6.47 5.9L4.21 5.89C4.22 5.22 4.41 4.56 4.76 3.99C5.11 3.41 5.62 2.95 6.22 2.64C6.82 2.34 7.49 2.2 8.16 2.26C10.03 2.41 11.57 4.01 11.58 5.9C11.59 7.44 10.42 8.92 9 9.38ZM6.75 13.5L8.21 13.5C8.42 13.5 8.62 13.41 8.76 13.26C8.91 13.12 9 12.92 9 12.71L9 11.25L7.53 11.25C7.32 11.25 7.12 11.33 6.98 11.48C6.83 11.62 6.75 11.82 6.75 12.03L6.75 13.5Z" fill="#FFFFFF" fill-opacity="0.800000" fill-rule="evenodd"/>
</svg>
